<svg width="20" height="19" viewBox="0 0 20 19" fill="none" xmlns="http://www.w3.org/2000/svg">
<path d="M10.2195 18.355C9.1641 18.355 8.10866 17.945 7.30499 17.115C5.69763 15.455 5.69763 12.765 7.30499 11.105L9.70634 8.635C9.98714 8.345 10.4519 8.345 10.7327 8.635C11.0135 8.925 11.0135 9.405 10.7327 9.695L8.33137 12.165C7.2953 13.235 7.2953 14.985 8.33137 16.055C9.36744 17.125 11.0619 17.125 12.098 16.055L15.8646 12.165C17.0072 10.985 17.6366 9.415 17.6366 7.745C17.6366 6.075 17.0072 4.505 15.8646 3.325C13.502 0.885 9.66761 0.885 7.30499 3.325L3.19945 7.565C2.24085 8.555 1.70829 9.875 1.70829 11.275C1.70829 12.675 2.24085 13.995 3.19945 14.985C3.48025 15.275 3.48025 15.755 3.19945 16.045C2.91865 16.335 2.45387 16.335 2.17307 16.045C0.943343 14.765 0.255859 13.075 0.255859 11.275C0.255859 9.475 0.93366 7.775 2.17307 6.505L6.2786 2.265C9.20283 -0.755 13.9668 -0.755 16.891 2.265C18.3047 3.725 19.089 5.675 19.089 7.745C19.089 9.815 18.3047 11.765 16.891 13.225L13.1244 17.115C12.3207 17.945 11.275 18.355 10.2195 18.355Z" fill="#768396"/>
</svg>
