<svg width="20" height="20" viewBox="0 0 20 20" fill="none" xmlns="http://www.w3.org/2000/svg">
<path d="M6.66663 4.79199C6.32496 4.79199 6.04163 4.50866 6.04163 4.16699V1.66699C6.04163 1.32533 6.32496 1.04199 6.66663 1.04199C7.00829 1.04199 7.29163 1.32533 7.29163 1.66699V4.16699C7.29163 4.50866 7.00829 4.79199 6.66663 4.79199Z" fill="#5F6388"/>
<path d="M13.3334 4.79199C12.9917 4.79199 12.7084 4.50866 12.7084 4.16699V1.66699C12.7084 1.32533 12.9917 1.04199 13.3334 1.04199C13.675 1.04199 13.9584 1.32533 13.9584 1.66699V4.16699C13.9584 4.50866 13.675 4.79199 13.3334 4.79199Z" fill="#5F6388"/>
<path d="M7.08333 12.0829C6.975 12.0829 6.86667 12.058 6.76667 12.0163C6.65833 11.9746 6.575 11.9163 6.49167 11.8413C6.34167 11.6829 6.25 11.4746 6.25 11.2496C6.25 11.1413 6.275 11.0329 6.31667 10.9329C6.35833 10.8329 6.41667 10.7413 6.49167 10.6579C6.575 10.5829 6.65833 10.5246 6.76667 10.4829C7.06667 10.3579 7.44167 10.4246 7.675 10.6579C7.825 10.8163 7.91667 11.0329 7.91667 11.2496C7.91667 11.2996 7.90833 11.358 7.9 11.4163C7.89167 11.4663 7.875 11.5163 7.85 11.5663C7.83333 11.6163 7.80833 11.6663 7.775 11.7163C7.75 11.7579 7.70833 11.7996 7.675 11.8413C7.51667 11.9913 7.3 12.0829 7.08333 12.0829Z" fill="#5F6388"/>
<path d="M9.99996 12.0837C9.89163 12.0837 9.78329 12.0587 9.68329 12.0171C9.57496 11.9754 9.49163 11.917 9.40829 11.842C9.25829 11.6837 9.16663 11.4754 9.16663 11.2504C9.16663 11.142 9.19163 11.0337 9.23329 10.9337C9.27496 10.8337 9.33329 10.7421 9.40829 10.6587C9.49163 10.5837 9.57496 10.5254 9.68329 10.4837C9.98329 10.3504 10.3583 10.4254 10.5916 10.6587C10.7416 10.8171 10.8333 11.0337 10.8333 11.2504C10.8333 11.3004 10.825 11.3587 10.8166 11.4171C10.8083 11.4671 10.7916 11.5171 10.7666 11.5671C10.75 11.6171 10.725 11.667 10.6916 11.717C10.6666 11.7587 10.625 11.8004 10.5916 11.842C10.4333 11.992 10.2166 12.0837 9.99996 12.0837Z" fill="#5F6388"/>
<path d="M12.9167 12.0837C12.8084 12.0837 12.7 12.0587 12.6 12.0171C12.4917 11.9754 12.4084 11.917 12.325 11.842C12.2917 11.8004 12.2584 11.7587 12.225 11.717C12.1917 11.667 12.1667 11.6171 12.15 11.5671C12.125 11.5171 12.1084 11.4671 12.1 11.4171C12.0917 11.3587 12.0834 11.3004 12.0834 11.2504C12.0834 11.0337 12.175 10.8171 12.325 10.6587C12.4084 10.5837 12.4917 10.5254 12.6 10.4837C12.9084 10.3504 13.275 10.4254 13.5084 10.6587C13.6584 10.8171 13.75 11.0337 13.75 11.2504C13.75 11.3004 13.7417 11.3587 13.7334 11.4171C13.725 11.4671 13.7084 11.5171 13.6834 11.5671C13.6667 11.6171 13.6417 11.667 13.6084 11.717C13.5834 11.7587 13.5417 11.8004 13.5084 11.842C13.35 11.992 13.1334 12.0837 12.9167 12.0837Z" fill="#5F6388"/>
<path d="M7.08333 15C6.975 15 6.86667 14.975 6.76667 14.9333C6.66667 14.8917 6.575 14.8333 6.49167 14.7583C6.34167 14.6 6.25 14.3833 6.25 14.1667C6.25 14.0583 6.275 13.95 6.31667 13.85C6.35833 13.7417 6.41667 13.65 6.49167 13.575C6.8 13.2667 7.36667 13.2667 7.675 13.575C7.825 13.7333 7.91667 13.95 7.91667 14.1667C7.91667 14.3833 7.825 14.6 7.675 14.7583C7.51667 14.9083 7.3 15 7.08333 15Z" fill="#5F6388"/>
<path d="M9.99996 15C9.78329 15 9.56663 14.9083 9.40829 14.7583C9.25829 14.6 9.16663 14.3833 9.16663 14.1667C9.16663 14.0583 9.19163 13.95 9.23329 13.85C9.27496 13.7417 9.33329 13.65 9.40829 13.575C9.71663 13.2667 10.2833 13.2667 10.5916 13.575C10.6666 13.65 10.725 13.7417 10.7666 13.85C10.8083 13.95 10.8333 14.0583 10.8333 14.1667C10.8333 14.3833 10.7416 14.6 10.5916 14.7583C10.4333 14.9083 10.2166 15 9.99996 15Z" fill="#5F6388"/>
<path d="M12.9167 15.0004C12.7 15.0004 12.4834 14.9087 12.325 14.7587C12.25 14.6837 12.1917 14.5921 12.15 14.4838C12.1084 14.3838 12.0834 14.2754 12.0834 14.1671C12.0834 14.0587 12.1084 13.9504 12.15 13.8504C12.1917 13.7421 12.25 13.6504 12.325 13.5754C12.5167 13.3838 12.8084 13.2921 13.075 13.3504C13.1334 13.3587 13.1834 13.3754 13.2334 13.4004C13.2834 13.4171 13.3334 13.4421 13.3834 13.4754C13.425 13.5004 13.4667 13.5421 13.5084 13.5754C13.6584 13.7338 13.75 13.9504 13.75 14.1671C13.75 14.3837 13.6584 14.6004 13.5084 14.7587C13.35 14.9087 13.1334 15.0004 12.9167 15.0004Z" fill="#5F6388"/>
<path d="M17.0833 8.20019H2.91663C2.57496 8.20019 2.29163 7.91686 2.29163 7.5752C2.29163 7.23353 2.57496 6.9502 2.91663 6.9502H17.0833C17.425 6.9502 17.7083 7.23353 17.7083 7.5752C17.7083 7.91686 17.425 8.20019 17.0833 8.20019Z" fill="#5F6388"/>
<path d="M13.3333 18.9587H6.66667C3.625 18.9587 1.875 17.2087 1.875 14.167V7.08366C1.875 4.04199 3.625 2.29199 6.66667 2.29199H13.3333C16.375 2.29199 18.125 4.04199 18.125 7.08366V14.167C18.125 17.2087 16.375 18.9587 13.3333 18.9587ZM6.66667 3.54199C4.28333 3.54199 3.125 4.70033 3.125 7.08366V14.167C3.125 16.5503 4.28333 17.7087 6.66667 17.7087H13.3333C15.7167 17.7087 16.875 16.5503 16.875 14.167V7.08366C16.875 4.70033 15.7167 3.54199 13.3333 3.54199H6.66667Z" fill="#5F6388"/>
</svg>
