<svg width="25" height="24" viewBox="0 0 25 24" fill="none" xmlns="http://www.w3.org/2000/svg">
<path d="M14.6669 16.9099C14.4769 16.9099 14.2869 16.8399 14.1369 16.6899L10.1769 12.7299C9.88688 12.4399 9.88688 11.9599 10.1769 11.6699C10.4669 11.3799 10.9469 11.3799 11.2369 11.6699L15.1969 15.6299C15.4869 15.9199 15.4869 16.3999 15.1969 16.6899C15.0469 16.8299 14.8569 16.9099 14.6669 16.9099Z" fill="#5051F9"/>
<path d="M10.6669 16.9499C10.4769 16.9499 10.2869 16.8799 10.1369 16.7299C9.84687 16.4399 9.84687 15.9599 10.1369 15.6699L14.0969 11.7099C14.3869 11.4199 14.8669 11.4199 15.1569 11.7099C15.4469 11.9999 15.4469 12.4799 15.1569 12.7699L11.1969 16.7299C11.0469 16.8799 10.8569 16.9499 10.6669 16.9499Z" fill="#5051F9"/>
<path d="M14.6669 6.75H10.6669C9.70687 6.75 7.91687 6.75 7.91687 4C7.91687 1.25 9.70687 1.25 10.6669 1.25H14.6669C15.6269 1.25 17.4169 1.25 17.4169 4C17.4169 4.96 17.4169 6.75 14.6669 6.75ZM10.6669 2.75C9.67687 2.75 9.41687 2.75 9.41687 4C9.41687 5.25 9.67687 5.25 10.6669 5.25H14.6669C15.9169 5.25 15.9169 4.99 15.9169 4C15.9169 2.75 15.6569 2.75 14.6669 2.75H10.6669Z" fill="#5051F9"/>
<path d="M15.6669 22.7499H9.66687C4.04687 22.7499 2.91687 20.1699 2.91687 15.9999V9.99993C2.91687 5.43993 4.56687 3.48993 8.62687 3.27993C9.04687 3.25993 9.39687 3.56993 9.41687 3.98993C9.43687 4.40993 9.11687 4.74993 8.70687 4.76993C5.86687 4.92993 4.41687 5.77993 4.41687 9.99993V15.9999C4.41687 19.6999 5.14687 21.2499 9.66687 21.2499H15.6669C20.1869 21.2499 20.9169 19.6999 20.9169 15.9999V9.99993C20.9169 5.77993 19.4669 4.92993 16.6269 4.76993C16.2169 4.74993 15.8969 4.38993 15.9169 3.97993C15.9369 3.56993 16.2969 3.24993 16.7069 3.26993C20.7669 3.48993 22.4169 5.43993 22.4169 9.98993V15.9899C22.4169 20.1699 21.2869 22.7499 15.6669 22.7499Z" fill="#5051F9"/>
</svg>
