<svg width="25" height="24" viewBox="0 0 25 24" fill="none" xmlns="http://www.w3.org/2000/svg">
<path d="M5.66991 19.5201C5.05991 19.5201 4.48992 19.31 4.07992 18.92C3.55992 18.43 3.30992 17.69 3.39992 16.89L3.76992 13.65C3.83992 13.04 4.20992 12.23 4.63992 11.79L12.8499 3.10005C14.8999 0.930049 17.0399 0.870049 19.2099 2.92005C21.3799 4.97005 21.4399 7.11005 19.3899 9.28005L11.1799 17.97C10.7599 18.42 9.97992 18.84 9.36992 18.9401L6.14991 19.49C5.97991 19.5 5.82992 19.5201 5.66991 19.5201ZM16.0599 2.91005C15.2899 2.91005 14.6199 3.39005 13.9399 4.11005L5.72991 12.8101C5.52991 13.0201 5.29992 13.5201 5.25992 13.8101L4.88992 17.05C4.84992 17.38 4.92992 17.65 5.10992 17.82C5.28992 17.99 5.55992 18.05 5.88992 18L9.10991 17.4501C9.39991 17.4001 9.87992 17.14 10.0799 16.93L18.2899 8.24005C19.5299 6.92005 19.9799 5.70005 18.1699 4.00005C17.3699 3.23005 16.6799 2.91005 16.0599 2.91005Z" fill="#5051F9"/>
<path d="M17.4699 10.9501C17.4499 10.9501 17.4199 10.9501 17.3999 10.9501C14.2799 10.6401 11.7699 8.27009 11.2899 5.17009C11.2299 4.76009 11.5099 4.38009 11.9199 4.31009C12.3299 4.25009 12.7099 4.53009 12.7799 4.94009C13.1599 7.36009 15.1199 9.22009 17.5599 9.46009C17.9699 9.50009 18.2699 9.87009 18.2299 10.2801C18.1799 10.6601 17.8499 10.9501 17.4699 10.9501Z" fill="#5051F9"/>
</svg>
