<svg width="16" height="16" viewBox="0 0 16 16" fill="none" xmlns="http://www.w3.org/2000/svg">
<path d="M8 15.1668C4.04666 15.1668 0.833328 11.9535 0.833328 8.00016C0.833328 4.04683 4.04666 0.833496 8 0.833496C11.9533 0.833496 15.1667 4.04683 15.1667 8.00016C15.1667 11.9535 11.9533 15.1668 8 15.1668ZM8 1.8335C4.6 1.8335 1.83333 4.60016 1.83333 8.00016C1.83333 11.4002 4.6 14.1668 8 14.1668C11.4 14.1668 14.1667 11.4002 14.1667 8.00016C14.1667 4.60016 11.4 1.8335 8 1.8335Z" fill="#F03A47"/>
<path d="M8 9.16683C7.72667 9.16683 7.5 8.94016 7.5 8.66683V5.3335C7.5 5.06016 7.72667 4.8335 8 4.8335C8.27333 4.8335 8.5 5.06016 8.5 5.3335V8.66683C8.5 8.94016 8.27333 9.16683 8 9.16683Z" fill="#F03A47"/>
<path d="M7.99999 11.3334C7.91333 11.3334 7.82666 11.3134 7.74666 11.2801C7.66666 11.2468 7.59333 11.2001 7.52666 11.1401C7.46666 11.0734 7.41999 11.0068 7.38666 10.9201C7.35333 10.8401 7.33333 10.7534 7.33333 10.6668C7.33333 10.5801 7.35333 10.4934 7.38666 10.4134C7.41999 10.3334 7.46666 10.2601 7.52666 10.1934C7.59333 10.1334 7.66666 10.0868 7.74666 10.0534C7.90666 9.98675 8.09333 9.98675 8.25333 10.0534C8.33333 10.0868 8.40666 10.1334 8.47333 10.1934C8.53333 10.2601 8.58 10.3334 8.61333 10.4134C8.64666 10.4934 8.66666 10.5801 8.66666 10.6668C8.66666 10.7534 8.64666 10.8401 8.61333 10.9201C8.58 11.0068 8.53333 11.0734 8.47333 11.1401C8.40666 11.2001 8.33333 11.2468 8.25333 11.2801C8.17333 11.3134 8.08666 11.3334 7.99999 11.3334Z" fill="#F03A47"/>
</svg>
