<svg width="25" height="24" viewBox="0 0 25 24" fill="none" xmlns="http://www.w3.org/2000/svg">
<path d="M12.0679 16.33C9.6779 16.33 7.7379 14.39 7.7379 12C7.7379 9.61004 9.6779 7.67004 12.0679 7.67004C14.4579 7.67004 16.3979 9.61004 16.3979 12C16.3979 14.39 14.4579 16.33 12.0679 16.33ZM12.0679 9.17004C10.5079 9.17004 9.2379 10.44 9.2379 12C9.2379 13.56 10.5079 14.83 12.0679 14.83C13.6279 14.83 14.8979 13.56 14.8979 12C14.8979 10.44 13.6279 9.17004 12.0679 9.17004Z" fill="#5051F9"/>
<path d="M12.0679 21.02C8.3079 21.02 4.7579 18.82 2.3179 15C1.2579 13.35 1.2579 10.66 2.3179 8.99998C4.7679 5.17998 8.3179 2.97998 12.0679 2.97998C15.8179 2.97998 19.3679 5.17998 21.8079 8.99998C22.8679 10.65 22.8679 13.34 21.8079 15C19.3679 18.82 15.8179 21.02 12.0679 21.02ZM12.0679 4.47998C8.8379 4.47998 5.7479 6.41998 3.5879 9.80998C2.8379 10.98 2.8379 13.02 3.5879 14.19C5.7479 17.58 8.8379 19.52 12.0679 19.52C15.2979 19.52 18.3879 17.58 20.5479 14.19C21.2979 13.02 21.2979 10.98 20.5479 9.80998C18.3879 6.41998 15.2979 4.47998 12.0679 4.47998Z" fill="#5051F9"/>
</svg>
