<svg width="20" height="22" viewBox="0 0 20 22" fill="none" xmlns="http://www.w3.org/2000/svg">
<path d="M8.94 21.65C8.46 21.65 7.99 21.53 7.55 21.29C6.67 20.8 6.14 19.91 6.14 18.91V13.61C6.14 13.11 5.81 12.36 5.5 11.98L1.76 8.01998C1.13 7.38998 0.650002 6.30998 0.650002 5.49998V3.19998C0.650002 1.59998 1.86 0.349976 3.4 0.349976H16.6C18.12 0.349976 19.35 1.57998 19.35 3.09998V5.29998C19.35 6.34998 18.72 7.53998 18.13 8.12998L13.8 11.96C13.38 12.31 13.05 13.08 13.05 13.7V18C13.05 18.89 12.49 19.92 11.79 20.34L10.41 21.23C9.96 21.51 9.45 21.65 8.94 21.65ZM3.4 1.84998C2.7 1.84998 2.15 2.43998 2.15 3.19998V5.49998C2.15 5.86998 2.45 6.58998 2.83 6.96998L6.64 10.98C7.15 11.61 7.65 12.66 7.65 13.6V18.9C7.65 19.55 8.1 19.87 8.29 19.97C8.71 20.2 9.22 20.2 9.61 19.96L11 19.07C11.28 18.9 11.56 18.36 11.56 18V13.7C11.56 12.63 12.08 11.45 12.83 10.82L17.11 7.02998C17.45 6.68998 17.86 5.87998 17.86 5.28998V3.09998C17.86 2.40998 17.3 1.84998 16.61 1.84998H3.4Z" fill="#768396"/>
</svg>
