<svg width="24" height="25" viewBox="0 0 24 25" fill="none" xmlns="http://www.w3.org/2000/svg">
<path d="M7.24924 5.23793C7.24924 4.82793 7.58921 4.4831 7.99916 4.47728L14.9985 4.37784C15.4084 4.37202 15.7484 4.70719 15.7484 5.11719C15.7484 5.52719 15.4084 5.87202 14.9985 5.87784L7.99916 5.97728C7.58921 5.9831 7.24924 5.64793 7.24924 5.23793Z" fill="#5051F9"/>
<path d="M14.7485 5.38147C14.7485 3.17147 16.5383 1.35604 18.7481 1.32464C20.9579 1.29325 22.7477 3.05782 22.7477 5.26782C22.7477 7.47782 20.9579 9.29325 18.7481 9.32464C16.5383 9.35604 14.7485 7.59147 14.7485 5.38147ZM21.2478 5.28913C21.2478 3.90913 20.1279 2.80504 18.7481 2.82464C17.3682 2.84425 16.2483 3.98016 16.2483 5.36016C16.2483 6.74016 17.3682 7.84425 18.7481 7.82464C20.1279 7.80504 21.2478 6.66913 21.2478 5.28913Z" fill="#5051F9"/>
<path d="M1.24984 5.32309C1.24984 3.25309 2.92967 1.54923 4.99946 1.51982C7.06925 1.49042 8.74908 3.14655 8.74908 5.21655C8.74908 7.28655 7.06925 8.99042 4.99946 9.01982C2.92967 9.04923 1.24984 7.39309 1.24984 5.32309ZM7.24924 5.23786C7.24924 3.99786 6.23934 3.00221 4.99946 3.01982C3.75959 3.03744 2.74969 4.06179 2.74969 5.30179C2.74969 6.54179 3.75959 7.53744 4.99946 7.51982C6.23934 7.50221 7.24924 6.47786 7.24924 5.23786Z" fill="#5051F9"/>
<path d="M1.24984 19.3231C1.24984 17.2531 2.92967 15.5492 4.99946 15.5198C7.06925 15.4904 8.74908 17.1466 8.74908 19.2166C8.74908 21.2866 7.06925 22.9904 4.99946 23.0198C2.92967 23.0492 1.24984 21.3931 1.24984 19.3231ZM7.24924 19.2379C7.24924 17.9979 6.23934 17.0022 4.99946 17.0198C3.75959 17.0374 2.74969 18.0618 2.74969 19.3018C2.74969 20.5418 3.75959 21.5374 4.99946 21.5198C6.23934 21.5022 7.24924 20.4779 7.24924 19.2379Z" fill="#5051F9"/>
<path d="M7.20924 18.4085C7.20924 18.0985 7.39922 17.8058 7.70919 17.6914C9.80898 16.9316 11.2188 14.9315 11.2188 12.7015C11.2188 12.6915 11.2188 12.6915 11.2188 12.6815L11.2088 9.25168C11.2088 9.24168 11.2088 9.24169 11.2088 9.23169C11.2088 7.04169 12.6887 5.11066 14.8085 4.53055C15.2084 4.42486 15.6184 4.65904 15.7184 5.05762C15.8184 5.4562 15.5784 5.86961 15.1784 5.97529C13.7186 6.37603 12.6987 7.70052 12.6987 9.21052V9.22052L12.7087 12.6504C12.7087 12.6604 12.7087 12.6704 12.7087 12.6804C12.7087 15.5404 10.8989 18.1161 8.18915 19.0946C7.79919 19.2401 7.36923 19.0362 7.23924 18.6481C7.22924 18.5682 7.20924 18.4885 7.20924 18.4085Z" fill="#5051F9"/>
</svg>
