<svg width="24" height="24" viewBox="0 0 24 24" fill="none" xmlns="http://www.w3.org/2000/svg">
<path d="M11.0001 11.75C11.1901 11.75 11.3801 11.68 11.5301 11.53C11.8201 11.24 11.8201 10.76 11.5301 10.47L3.33006 2.26999C3.04006 1.97999 2.56006 1.97999 2.27006 2.26999C1.98006 2.55999 1.98006 3.03999 2.27006 3.32999L10.4701 11.53C10.6201 11.68 10.8101 11.75 11.0001 11.75Z" fill="#232360"/>
<path d="M1.99981 7.55C2.40981 7.55 2.74981 7.21 2.74981 6.8V2.75H6.7998C7.2098 2.75 7.5498 2.41 7.5498 2C7.5498 1.59 7.2098 1.25 6.7998 1.25H1.99981C1.58981 1.25 1.24981 1.59 1.24981 2V6.8C1.24981 7.21 1.58981 7.55 1.99981 7.55Z" fill="#232360"/>
<path d="M9 22.75H15C20.43 22.75 22.75 20.43 22.75 15V9C22.75 3.57 20.43 1.25 15 1.25H13C12.59 1.25 12.25 1.59 12.25 2C12.25 2.41 12.59 2.75 13 2.75H15C19.61 2.75 21.25 4.39 21.25 9V15C21.25 19.61 19.61 21.25 15 21.25H9C4.39 21.25 2.75 19.61 2.75 15V13C2.75 12.59 2.41 12.25 2 12.25C1.59 12.25 1.25 12.59 1.25 13V15C1.25 20.43 3.57 22.75 9 22.75Z" fill="#232360"/>
</svg>
