<svg width="25" height="24" viewBox="0 0 25 24" fill="none" xmlns="http://www.w3.org/2000/svg">
<path d="M12.2852 22.78C11.5952 22.78 10.9452 22.43 10.4852 21.82L8.9852 19.82C8.9552 19.78 8.83518 19.72 8.77518 19.72H8.28519C4.11519 19.72 1.53519 18.59 1.53519 12.97V7.96997C1.53519 3.54997 3.86519 1.21997 8.28519 1.21997H16.2852C20.7052 1.21997 23.0352 3.54997 23.0352 7.96997V12.97C23.0352 13.38 22.6952 13.72 22.2852 13.72C21.8752 13.72 21.5352 13.38 21.5352 12.97V7.96997C21.5352 4.38997 19.8652 2.71997 16.2852 2.71997H8.28519C4.70519 2.71997 3.03519 4.38997 3.03519 7.96997V12.97C3.03519 17.49 4.58519 18.22 8.28519 18.22H8.78519C9.29519 18.22 9.88518 18.51 10.1852 18.92L11.6852 20.92C12.0352 21.38 12.5352 21.38 12.8852 20.92C13.1352 20.59 13.6052 20.52 13.9352 20.77C14.2652 21.02 14.3352 21.49 14.0852 21.82C13.6252 22.43 12.9752 22.78 12.2852 22.78Z" fill="#5051F9"/>
<path d="M12.2852 11.97C11.7252 11.97 11.2852 11.52 11.2852 10.97C11.2852 10.42 11.7352 9.96997 12.2852 9.96997C12.8352 9.96997 13.2852 10.42 13.2852 10.97C13.2852 11.52 12.8452 11.97 12.2852 11.97Z" fill="#5051F9"/>
<path d="M16.2852 11.97C15.7252 11.97 15.2852 11.52 15.2852 10.97C15.2852 10.42 15.7352 9.96997 16.2852 9.96997C16.8352 9.96997 17.2852 10.42 17.2852 10.97C17.2852 11.52 16.8452 11.97 16.2852 11.97Z" fill="#5051F9"/>
<path d="M8.28519 11.97C7.72519 11.97 7.28519 11.52 7.28519 10.97C7.28519 10.42 7.73519 9.96997 8.28519 9.96997C8.83519 9.96997 9.28519 10.42 9.28519 10.97C9.28519 11.52 8.84519 11.97 8.28519 11.97Z" fill="#5051F9"/>
<path d="M18.4852 22.15C16.3052 22.15 14.5352 20.38 14.5352 18.2C14.5352 16.02 16.3052 14.25 18.4852 14.25C20.6652 14.25 22.4352 16.02 22.4352 18.2C22.4352 20.38 20.6652 22.15 18.4852 22.15ZM18.4852 15.75C17.1352 15.75 16.0352 16.85 16.0352 18.2C16.0352 19.55 17.1352 20.65 18.4852 20.65C19.8352 20.65 20.9352 19.55 20.9352 18.2C20.9352 16.85 19.8352 15.75 18.4852 15.75Z" fill="#5051F9"/>
<path d="M22.2851 22.7499C22.0951 22.7499 21.9051 22.6799 21.7551 22.5299L20.7551 21.5299C20.4651 21.2399 20.4651 20.7599 20.7551 20.4699C21.0451 20.1799 21.5251 20.1799 21.8151 20.4699L22.8151 21.4699C23.1051 21.7599 23.1051 22.2399 22.8151 22.5299C22.6651 22.6799 22.4751 22.7499 22.2851 22.7499Z" fill="#5051F9"/>
</svg>
