<svg width="21" height="21" viewBox="0 0 21 21" fill="none" xmlns="http://www.w3.org/2000/svg">
<path d="M12.4657 1.78429L6.62503 7.62492C6.62503 7.62492 4.02816 6.32179 1.24378 8.57179C1.16185 8.63809 1.09481 8.72092 1.04704 8.81487C0.999269 8.90882 0.971835 9.01178 0.966528 9.11704C0.96122 9.22231 0.978159 9.32751 1.01624 9.42579C1.05432 9.52406 1.11269 9.61321 1.18753 9.68742L11.2938 19.7937C11.3694 19.8706 11.4608 19.9304 11.5617 19.9688C11.6625 20.0072 11.7705 20.0234 11.8782 20.0163C11.9859 20.0092 12.0907 19.9789 12.1857 19.9276C12.2806 19.8762 12.3633 19.8049 12.4282 19.7187C13.2157 18.678 14.4532 16.5218 13.375 14.3749L19.2157 8.53429C19.2865 8.46451 19.3428 8.38132 19.3812 8.28958C19.4196 8.19784 19.4394 8.09938 19.4394 7.99992C19.4394 7.90046 19.4196 7.802 19.3812 7.71025C19.3428 7.61851 19.2865 7.53533 19.2157 7.46554L13.5344 1.78429C13.4646 1.71343 13.3814 1.65715 13.2897 1.61874C13.198 1.58033 13.0995 1.56055 13 1.56055C12.9006 1.56055 12.8021 1.58033 12.7104 1.61874C12.6186 1.65715 12.5354 1.71343 12.4657 1.78429Z" stroke="#5051F9" stroke-width="1.5" stroke-linecap="round" stroke-linejoin="round"/>
</svg>
