<svg width="25" height="24" viewBox="0 0 25 24" fill="none" xmlns="http://www.w3.org/2000/svg">
<path d="M21.328 6.72998C21.308 6.72998 21.278 6.72998 21.248 6.72998C15.958 6.19998 10.678 5.99998 5.44801 6.52998L3.40801 6.72998C2.98801 6.76998 2.61801 6.46998 2.57801 6.04998C2.53801 5.62998 2.83801 5.26998 3.24801 5.22998L5.28801 5.02998C10.608 4.48998 15.998 4.69998 21.398 5.22998C21.808 5.26998 22.108 5.63998 22.068 6.04998C22.038 6.43998 21.708 6.72998 21.328 6.72998Z" fill="#5051F9"/>
<path d="M8.828 5.72C8.788 5.72 8.748 5.72 8.698 5.71C8.298 5.64 8.018 5.25 8.088 4.85L8.308 3.54C8.468 2.58 8.688 1.25 11.018 1.25H13.638C15.978 1.25 16.198 2.63 16.348 3.55L16.568 4.85C16.638 5.26 16.358 5.65 15.958 5.71C15.548 5.78 15.158 5.5 15.098 5.1L14.878 3.8C14.738 2.93 14.708 2.76 13.648 2.76H11.028C9.968 2.76 9.948 2.9 9.798 3.79L9.568 5.09C9.508 5.46 9.188 5.72 8.828 5.72Z" fill="#5051F9"/>
<path d="M15.538 22.7501H9.11801C5.62801 22.7501 5.48801 20.8201 5.37801 19.2601L4.72801 9.19007C4.69801 8.78007 5.01801 8.42008 5.42801 8.39008C5.84801 8.37008 6.19801 8.68008 6.22801 9.09008L6.87801 19.1601C6.98801 20.6801 7.02801 21.2501 9.11801 21.2501H15.538C17.638 21.2501 17.678 20.6801 17.778 19.1601L18.428 9.09008C18.458 8.68008 18.818 8.37008 19.228 8.39008C19.638 8.42008 19.958 8.77007 19.928 9.19007L19.278 19.2601C19.168 20.8201 19.028 22.7501 15.538 22.7501Z" fill="#5051F9"/>
<path d="M13.988 17.25H10.658C10.248 17.25 9.90799 16.91 9.90799 16.5C9.90799 16.09 10.248 15.75 10.658 15.75H13.988C14.398 15.75 14.738 16.09 14.738 16.5C14.738 16.91 14.398 17.25 13.988 17.25Z" fill="#5051F9"/>
<path d="M14.828 13.25H9.828C9.418 13.25 9.078 12.91 9.078 12.5C9.078 12.09 9.418 11.75 9.828 11.75H14.828C15.238 11.75 15.578 12.09 15.578 12.5C15.578 12.91 15.238 13.25 14.828 13.25Z" fill="#5051F9"/>
</svg>
