<svg width="12" height="18" viewBox="0 0 12 18" fill="none" xmlns="http://www.w3.org/2000/svg">
<path fill-rule="evenodd" clip-rule="evenodd" d="M0.808369 6.75C1.20945 6.75 1.53458 7.08579 1.53458 7.5V8.25C1.53458 10.7353 3.48541 12.75 5.89187 12.75C8.29834 12.75 10.2492 10.7353 10.2492 8.25V7.5C10.2492 7.08579 10.5743 6.75 10.9754 6.75C11.3765 6.75 11.7016 7.08579 11.7016 7.5V8.25C11.7016 11.3097 9.48396 13.8345 6.61809 14.2036V16.5H8.79674C9.19781 16.5 9.52295 16.8358 9.52295 17.25C9.52295 17.6642 9.19781 18 8.79674 18H6.61809H5.16566H2.98701C2.58594 18 2.2608 17.6642 2.2608 17.25C2.2608 16.8358 2.58594 16.5 2.98701 16.5H5.16566V14.2036C2.29979 13.8345 0.0821533 11.3097 0.0821533 8.25V7.5C0.0821533 7.08579 0.407291 6.75 0.808369 6.75Z" fill="#768396"/>
<path d="M2.98706 3C2.98706 1.34315 4.28761 0 5.89192 0C7.49623 0 8.79678 1.34315 8.79678 3V8.25C8.79678 9.90685 7.49623 11.25 5.89192 11.25C4.28761 11.25 2.98706 9.90685 2.98706 8.25V3Z" fill="#768396"/>
</svg>
